<svg width="50" height="50" viewBox="0 0 50 50" fill="none" xmlns="http://www.w3.org/2000/svg">
<path d="M14.6484 39.3408L14.6484 43.1152C14.6484 43.4423 15.0244 43.623 15.2783 43.4228L37.29 26.2304C37.4771 26.085 37.6284 25.8987 37.7325 25.6859C37.8366 25.4731 37.8907 25.2393 37.8907 25.0024C37.8907 24.7655 37.8366 24.5317 37.7325 24.3189C37.6284 24.106 37.4771 23.9198 37.29 23.7744L15.2783 6.58198C15.0195 6.38178 14.6484 6.56244 14.6484 6.88959L14.6484 10.664C14.6484 10.9033 14.7607 11.1328 14.9463 11.2792L32.5244 24.9999L14.9463 38.7255C14.7607 38.872 14.6484 39.1015 14.6484 39.3408Z" fill="black"/>
</svg>
