<svg width="113" height="68" viewBox="0 0 113 68" fill="none" xmlns="http://www.w3.org/2000/svg">
<path d="M0 26.9386C0.227069 24.7696 0.605518 23.1381 1.13535 22.044C2.1477 19.9321 3.65676 18.4338 5.66254 17.549C7.45071 16.7595 9.39498 16.3647 11.4954 16.3647C15.0149 16.3647 17.5837 17.335 19.2015 19.2757C20.176 20.4268 20.739 21.8585 20.8904 23.5709L21.0181 24.9123C20.8572 25.0645 19.8402 25.1406 17.9668 25.1406L15.7103 25.1121H15.5259L14.2912 25.0835L13.9506 25.0978H13.6667C13.4018 25.0978 13.1984 24.7077 13.0565 23.9277C12.924 23.1476 12.7159 22.6339 12.432 22.3865C12.1577 22.1297 11.836 22.0012 11.467 22.0012C11.098 22.0012 10.7716 22.0678 10.4878 22.201C10.2134 22.3342 9.98631 22.4959 9.80655 22.6862C9.62678 22.8669 9.4754 23.1285 9.35241 23.471C9.12534 24.0608 8.98815 24.6887 8.94085 25.3546C8.89354 26.0111 8.86989 26.7483 8.86989 27.5665V27.9089L8.81312 29.3502C8.81312 31.9758 9.55109 33.3172 11.027 33.3743C11.4055 33.3743 11.6704 33.3077 11.8218 33.1745C12.2286 32.813 12.5834 32.0852 12.8862 30.9912C12.9524 30.7629 13.0328 30.5774 13.1274 30.4347H13.6667L14.3195 30.449H16.6186L17.314 30.4347L18.6622 30.449H19.4854L20.3227 30.4632H20.8904C21.0039 30.4727 21.0843 30.5726 21.1316 30.7629L21.089 31.2338C21.0039 32.3564 20.7437 33.3743 20.3085 34.2875C19.5043 35.9619 18.2365 37.2081 16.5051 38.0262C14.7831 38.8349 12.8909 39.2392 10.8284 39.2392C7.22364 39.2392 4.51773 38.1689 2.71064 36.0285C0.903546 33.888 0 30.858 0 26.9386Z" fill="url(#paint0_linear)"/>
<path d="M113 34.0497C112.934 34.3161 112.901 34.6015 112.901 34.9059V35.2341C112.901 35.7383 112.934 36.0998 113 36.3186C113 37.7551 112.995 38.8634 112.986 39.6435C112.929 39.8908 108.26 40.0145 98.9785 40.0145C98.5527 40.0145 97.8479 40.005 96.8639 39.9859C96.7125 39.7006 96.6368 39.2296 96.6368 38.5732L96.6652 37.6457V34.4064L96.6794 31.6952V29.0125L96.6936 24.6887C96.6936 23.8896 96.6841 23.138 96.6652 22.4341V22.2771L96.6226 20.2222C96.6226 19.0141 96.722 18.2292 96.9207 17.8677C97.1099 17.8772 97.3701 17.882 97.7012 17.882H98.3824L100.767 17.8535C103.482 17.8535 104.977 18.0247 105.251 18.3672L105.138 23.3473L105.095 27.5284L105.081 27.6996L105.024 33.6359L105.592 33.9641C107.304 33.8594 108.96 33.8071 110.559 33.8071C112.167 33.8071 112.981 33.888 113 34.0497Z" fill="url(#paint1_linear)"/>
<path d="M81.9081 39.4354C81.2448 42.2318 80.4659 44.4833 79.5713 46.1898C78.6767 47.8963 77.625 49.0902 76.4163 49.7714C75.2075 50.4526 73.9635 50.8193 72.6844 50.8714C71.4053 50.9236 69.8388 50.7273 67.985 50.2828C66.1312 49.8382 64.6452 49.3025 63.5272 48.6755C62.4092 48.0485 61.4637 47.1568 60.6908 46.0003C59.9179 44.8439 59.5153 43.3013 59.483 41.3725C59.4506 39.4437 59.7661 37.0811 60.4294 34.2847C60.6758 33.246 60.5853 32.2744 60.1581 31.3697C59.7308 30.465 59.0937 29.9112 58.2467 29.708C57.3997 29.5049 56.5905 29.712 55.8192 30.3292C55.0478 30.9464 54.539 31.7744 54.2926 32.813C53.6293 35.6095 52.8504 37.8609 51.9558 39.5675C51.0612 41.274 50.0096 42.4679 48.8008 43.1491C47.592 43.8303 46.3481 44.197 45.0689 44.2491C43.7898 44.3012 42.2233 44.105 40.3695 43.6605C38.5157 43.2159 37.0298 42.6801 35.9117 42.0532C34.7937 41.4262 33.8482 40.5344 33.0753 39.378C32.3024 38.2216 31.8998 36.679 31.8675 34.7502C31.8352 32.8214 32.1506 30.4588 32.8139 27.6623C33.354 25.3853 33.9035 23.6382 34.4624 22.4212C34.2164 21.18 34.461 20.0776 35.1962 19.1139L50.4609 1.11508C50.9925 0.440371 51.612 0.0717183 52.3193 0.00912739C53.0267 -0.0534635 53.6239 0.205858 54.111 0.787091C54.598 1.36832 54.8276 2.10947 54.7997 3.01052C54.7717 3.91157 54.492 4.69946 53.9603 5.37417L42.9989 18.2618C44.3887 18.384 45.9945 18.6635 47.8164 19.1004C50.2136 19.6752 51.9913 20.3338 53.1496 21.0759C54.3079 21.8181 55.0355 22.7737 55.3325 23.9427C56.811 24.9728 58.0936 25.6181 59.1803 25.8787C60.267 26.1393 61.7012 26.1455 63.4829 25.8972C64.2726 24.9888 65.3509 24.4663 66.7176 24.3296C68.0844 24.1929 69.9663 24.412 72.3635 24.9869C74.1534 25.4161 75.7118 25.8954 77.0388 26.4247L73.0419 9.95002C72.8703 9.10668 72.9743 8.27664 73.3538 7.4599C73.7333 6.64316 74.2709 6.08597 74.9664 5.78833C75.6619 5.49069 76.3112 5.53029 76.9144 5.90714C77.5175 6.28398 77.9048 6.89408 78.0763 7.73741L83.6192 30.726C83.8428 31.9196 83.5662 33.0143 82.7895 34.0103C82.742 35.3499 82.4482 37.1583 81.9081 39.4354ZM40.77 21.4638C39.8111 21.2339 38.9747 21.4133 38.2608 22.0021C37.5469 22.5909 37.0573 23.4445 36.792 24.5631C36.5266 25.6817 36.5804 26.6656 36.9532 27.515C37.326 28.3644 37.9918 28.904 38.9507 29.134C40.6447 29.5402 42.1786 29.5175 43.5525 29.0659C44.9264 28.6143 45.7413 27.8491 45.9971 26.7705C46.2529 25.6919 45.8692 24.6394 44.8459 23.6129C43.8226 22.5864 42.464 21.8701 40.77 21.4638ZM68.3855 28.0862C67.4266 27.8562 66.5902 28.0356 65.8763 28.6244C65.1624 29.2132 64.6727 30.0669 64.4074 31.1854C64.1421 32.304 64.1959 33.288 64.5687 34.1373C64.9415 34.9867 65.6073 35.5264 66.5662 35.7563C68.2602 36.1625 69.7941 36.1398 71.168 35.6882C72.5419 35.2366 73.3567 34.4715 73.6126 33.3929C73.8684 32.3142 73.4847 31.2617 72.4614 30.2352C71.4381 29.2087 70.0795 28.4924 68.3855 28.0862Z" fill="url(#paint2_linear)"/>
<path d="M0.266808 61.8497C0.380343 60.7652 0.569567 59.9494 0.834481 59.4024C1.34066 58.3465 2.09519 57.5973 3.09808 57.1549C3.99216 56.7601 4.9643 56.5627 6.01449 56.5627C7.77428 56.5627 9.05864 57.0479 9.86757 58.0183C10.3548 58.5938 10.6363 59.3097 10.712 60.1659L10.7759 60.8366C10.6954 60.9127 10.1869 60.9507 9.25023 60.9507L8.12198 60.9364H8.02973L7.41239 60.9222L7.24209 60.9293H7.10017C6.96771 60.9293 6.866 60.7343 6.79504 60.3442C6.72882 59.9542 6.62474 59.6973 6.48282 59.5737C6.34564 59.4452 6.1848 59.381 6.0003 59.381C5.81581 59.381 5.6526 59.4143 5.51069 59.4809C5.3735 59.5475 5.25996 59.6284 5.17008 59.7235C5.0802 59.8139 5.00451 59.9447 4.94301 60.1159C4.82948 60.4108 4.76088 60.7248 4.73723 61.0577C4.71358 61.3859 4.70175 61.7546 4.70175 62.1636V62.3349L4.67337 63.0555C4.67337 64.3683 5.04236 65.039 5.78033 65.0676C5.96955 65.0676 6.10201 65.0343 6.1777 64.9677C6.38112 64.7869 6.55851 64.423 6.70989 63.876C6.74301 63.7619 6.78322 63.6691 6.83052 63.5978H7.10017L7.42658 63.6049H8.57612L8.92382 63.5978L9.59793 63.6049H10.0095L10.4282 63.612H10.712C10.7688 63.6168 10.809 63.6667 10.8326 63.7619L10.8113 63.9973C10.7688 64.5586 10.6387 65.0676 10.4211 65.5242C10.019 66.3614 9.38505 66.9845 8.51935 67.3935C7.65838 67.7978 6.71226 68 5.68099 68C3.87863 68 2.52567 67.4649 1.62213 66.3946C0.718581 65.3244 0.266808 63.8094 0.266808 61.8497Z" fill="url(#paint3_linear)"/>
<path d="M24.3319 64.7964C24.2988 64.9296 24.2822 65.0723 24.2822 65.2245V65.3886C24.2822 65.6407 24.2988 65.8215 24.3319 65.9309C24.3319 66.6491 24.3295 67.2033 24.3248 67.5933C24.2964 67.717 21.9618 67.7788 17.3211 67.7788C17.1082 67.7788 16.7558 67.7741 16.2638 67.7645C16.1881 67.6218 16.1503 67.3864 16.1503 67.0582L16.1645 66.5944V64.9748L16.1716 63.6192V62.2778L16.1787 60.1159C16.1787 59.7164 16.1739 59.3406 16.1645 58.9886V58.9101L16.1432 57.8827C16.1432 57.2786 16.1929 56.8862 16.2922 56.7054C16.3868 56.7102 16.5169 56.7126 16.6825 56.7126H17.0231L18.2152 56.6983C19.5729 56.6983 20.3203 56.7839 20.4575 56.9552L20.4007 59.4452L20.3795 61.5358L20.3724 61.6214L20.344 64.5895L20.6278 64.7536C21.4841 64.7013 22.3119 64.6751 23.1114 64.6751C23.9156 64.6751 24.3224 64.7156 24.3319 64.7964Z" fill="url(#paint4_linear)"/>
<path d="M32.9917 62.1137C32.9917 62.1185 32.9894 62.1303 32.9846 62.1494V62.1708C32.9657 62.3706 32.9562 62.5941 32.9562 62.8415C32.9562 63.0888 32.9752 63.3504 33.013 63.6263C33.0556 63.9022 33.1218 64.1781 33.2117 64.4539C33.3063 64.7298 33.4506 64.9534 33.6446 65.1246C33.8527 65.3054 34.0845 65.3958 34.3399 65.3958C34.6001 65.3958 34.8177 65.3601 34.9928 65.2887C35.1725 65.2126 35.3215 65.1175 35.4398 65.0033C35.5628 64.8892 35.6692 64.7346 35.7591 64.5396C35.9862 64.0211 36.0997 63.2172 36.0997 62.128C36.0997 61.0197 35.972 60.2444 35.7166 59.802C35.4658 59.3549 35.085 59.1313 34.5741 59.1313C34.3187 59.1313 34.094 59.1931 33.9 59.3168C33.7108 59.4405 33.5665 59.5689 33.4672 59.7021C33.3725 59.8353 33.2732 60.1183 33.1691 60.5512C33.0698 60.984 33.0201 61.3836 33.0201 61.7498L32.9917 62.1137ZM28.9116 62.1708L28.9258 62.0138C28.9825 61.4192 29.0582 60.8936 29.1528 60.437C29.2474 59.9756 29.4012 59.5451 29.6141 59.1456C30.1202 58.2656 30.8251 57.5997 31.7287 57.1478C32.6369 56.6912 33.6138 56.4628 34.6593 56.4628C35.7095 56.4628 36.6627 56.6745 37.5189 57.0979C38.0298 57.35 38.4296 57.6686 38.7181 58.0539C39.2716 58.7484 39.6359 59.3882 39.8109 59.9732C39.9859 60.5583 40.0734 61.2337 40.0734 61.9995C40.0734 63.7024 39.7234 65.001 39.0232 65.8952L38.6968 66.3304C38.2569 66.8441 37.6348 67.2413 36.8306 67.522C36.0264 67.7978 35.2293 67.9405 34.4393 67.9501C33.0863 67.9501 31.977 67.6647 31.1113 67.0939C29.6448 66.1378 28.9116 64.4968 28.9116 62.1708Z" fill="url(#paint5_linear)"/>
<path d="M53.9204 59.4381C53.9204 59.5951 53.9038 59.6736 53.8707 59.6736C53.8707 59.6736 53.0145 59.6664 51.302 59.6522C51.2925 60.1135 51.2878 60.8342 51.2878 61.814C51.2878 62.7939 51.2902 63.4741 51.2949 63.8546L51.3233 67.6361C51.2996 67.7027 51.2523 67.7384 51.1814 67.7431L49.6841 67.7217L49.677 67.7289L49.2087 67.7217H47.9102C47.5601 67.7217 47.2976 67.7241 47.1225 67.7289L47.0019 67.6218C46.9972 67.6171 46.9664 67.579 46.9096 67.5077C46.9096 67.0891 46.9262 66.1592 46.9593 64.7179L47.0374 60.9222L47.0232 60.7438C46.9901 60.2729 46.9569 59.9946 46.9238 59.909C46.8955 59.8186 46.8363 59.7711 46.7464 59.7663C46.6566 59.7568 46.5903 59.752 46.5477 59.752L46.2639 59.7663L44.5041 59.7378C44.4426 59.6141 44.4119 59.3358 44.4119 58.903L44.4261 58.2751V58.0825C44.4213 57.3214 44.4142 56.9147 44.4048 56.8624C44.4142 56.8624 44.4332 56.8672 44.4616 56.8767L53.4946 56.7982C53.6791 56.7982 53.795 56.8125 53.8423 56.841C53.8897 56.8648 53.9133 56.9123 53.9133 56.9837V58.8673L53.9204 59.4381Z" fill="url(#paint6_linear)"/>
<path d="M69.2433 65.0961L69.2362 65.9451C69.2362 66.3019 69.2409 66.8655 69.2504 67.6361C69.1842 67.7265 68.6591 67.7717 67.6751 67.7717C66.6911 67.7717 65.8113 67.7574 65.0354 67.7289C65.026 67.7194 64.981 67.6599 64.9006 67.5505V66.4089L64.9148 64.2185C64.9148 64.0044 64.8912 63.8784 64.8438 63.8403C64.7965 63.8023 64.6523 63.7833 64.411 63.7833H64.3117C63.8622 63.7833 63.5075 63.8047 63.2473 63.8475V64.8464L63.2331 67.6076C63.1621 67.6837 62.5684 67.7217 61.452 67.7217H61.1114C60.1464 67.7217 59.4439 67.7075 59.0039 67.6789C58.914 67.6504 58.8691 67.3127 58.8691 66.6658L58.9117 65.089L58.9826 58.6961V58.3536C58.9874 58.2823 58.9897 58.0349 58.9897 57.6116C58.9897 57.1835 59.0157 56.9123 59.0678 56.7982H59.1033C59.4155 56.8077 59.6449 56.8125 59.7916 56.8125H60.5863L61.4449 56.7982H61.7146C62.5188 56.7982 62.9871 56.8909 63.1195 57.0765C63.1858 57.1716 63.2189 57.3167 63.2189 57.5117L63.1976 58.4035V58.7389L63.155 60.1516C63.155 60.2562 63.1621 60.3942 63.1763 60.5654H63.6163L63.7937 60.5726H64.3613C64.5695 60.5726 64.7823 60.5559 65 60.5226V58.8316L65.007 58.3037V57.8113L65 57.6972V57.3333C65 57.0527 65.0118 56.8814 65.0354 56.8196C65.0638 56.7578 65.1324 56.7268 65.2412 56.7268L65.3831 56.734H65.8444L67.3771 56.6912C68.5976 56.6912 69.2078 56.7887 69.2078 56.9837V57.4903L69.2149 57.6615L69.2078 58.0325V59.1384L69.2433 63.6905C69.2433 63.7666 69.2386 63.8665 69.2291 63.9902V64.3327C69.2291 64.4849 69.2338 64.6846 69.2433 64.932V65.0961Z" fill="url(#paint7_linear)"/>
<path d="M74.9725 66.7728C74.9725 65.8072 74.9986 65.1365 75.0506 64.7607C75.0506 62.6916 75.079 60.6059 75.1357 58.5034C75.1216 58.2038 75.1145 57.9017 75.1145 57.5973V57.3618C75.0955 57.2144 75.0861 57.0836 75.0861 56.9694C75.0861 56.8553 75.0979 56.7815 75.1216 56.7482C76.1339 56.8101 77.0209 56.841 77.7825 56.841C78.5442 56.841 79.0669 56.8267 79.3507 56.7982C79.3602 56.8125 79.3673 56.8529 79.372 56.9195H79.3223V59.5023L79.372 65.3101C79.372 65.353 79.3791 65.3886 79.3933 65.4172V65.4314C79.4075 65.46 79.4146 65.4909 79.4146 65.5242L79.4714 67.6004C79.4477 67.6528 79.4051 67.6932 79.3436 67.7217H79.1024L75.1287 67.7859C75.0814 67.7622 75.0199 67.7265 74.9442 67.6789L74.9513 67.5576L74.9725 66.7728Z" fill="url(#paint8_linear)"/>
<path d="M96.1212 62.5418L96.1141 63.0198V65.6598L96.1283 66.9155V67.2722L96.1354 67.6076C96.107 67.6456 95.9911 67.6647 95.7877 67.6647H95.6032L93.3751 67.6932C92.429 67.6932 91.7241 67.6908 91.2605 67.6861C91.1895 67.61 90.9317 66.9179 90.487 65.6098L89.1317 61.9924L88.8763 62.0281L88.8692 62.7558V64.6894L88.8976 66.623V67.4221C88.8976 67.6361 88.8503 67.7479 88.7556 67.7574C88.2873 67.7431 87.8403 67.736 87.4145 67.736H87.1945L86.1231 67.7645H85.9811L85.4702 67.7788L85.4489 67.7645C85.2928 67.6171 85.2148 67.5101 85.2148 67.4435V67.315L85.2219 67.1723L85.2574 64.3897C85.2574 61.336 85.2857 59.0267 85.3425 57.4617L85.3567 56.8695C85.3567 56.8267 86.9864 56.7887 90.2458 56.7554C90.2742 56.7744 90.3167 56.8791 90.3735 57.0693V57.0479L90.4161 57.1906C90.7661 58.199 91.1919 59.3572 91.6933 60.6653C92.1948 61.9686 92.4502 62.6345 92.4597 62.6631L92.701 62.6488L92.7293 56.8339C92.7293 56.7958 93.0747 56.7768 93.7654 56.7768L95.5464 56.8125H96.0715C96.1046 58.3869 96.1212 60.2967 96.1212 62.5418Z" fill="url(#paint9_linear)"/>
<path d="M112.643 67.1224C112.643 67.1272 112.646 67.1367 112.65 67.1509L112.629 67.208H112.636V67.2223C112.636 67.2318 112.634 67.2389 112.629 67.2437C112.407 67.4149 111.863 67.5719 110.997 67.7146C110.136 67.8573 109.542 67.9286 109.216 67.9286C108.894 67.9286 108.715 67.9263 108.677 67.9215L108.315 67.9429C107.936 67.9667 107.719 67.9786 107.662 67.9786C105.675 67.9786 104.161 67.4768 103.121 66.4731C102.085 65.4695 101.567 64.0449 101.567 62.1993C101.567 60.349 102.125 58.9458 103.241 57.9897C104.362 57.0336 105.879 56.5556 107.79 56.5556C108.14 56.5556 108.57 56.5889 109.081 56.6555C109.597 56.7221 110.049 56.8196 110.436 56.948C110.91 57.143 111.314 57.4261 111.65 57.7971C111.99 58.1633 112.213 58.57 112.317 59.0171C112.336 59.1408 112.357 59.3358 112.381 59.6022C112.409 59.8638 112.433 60.0565 112.452 60.1801C112.423 60.2515 112.322 60.2872 112.147 60.2872L108.542 60.2229C108.523 60.2134 108.499 60.1492 108.471 60.0303V60.0517C108.386 59.6664 108.218 59.431 107.967 59.3454C107.854 59.3025 107.705 59.2811 107.52 59.2811C107.336 59.2811 107.161 59.3121 106.995 59.3739C106.834 59.4357 106.699 59.5213 106.59 59.6307C106.482 59.7402 106.385 59.8686 106.3 60.016C106.214 60.1587 106.151 60.3133 106.108 60.4798C106.065 60.6463 106.028 60.8175 105.994 60.9935C105.961 61.1695 105.94 61.3431 105.931 61.5144C105.926 61.6856 105.919 61.8497 105.909 62.0067C105.905 62.1636 105.905 62.2944 105.909 62.3991C105.914 62.499 105.916 62.5656 105.916 62.5989V63.0912C105.916 63.4004 105.931 63.6168 105.959 63.7405C105.987 63.8594 106.02 63.9926 106.058 64.14C106.096 64.2827 106.141 64.3921 106.193 64.4682C106.378 64.7298 106.576 64.913 106.789 65.0176C107.007 65.1175 107.343 65.1674 107.797 65.1674C108.256 65.1674 108.691 65.0985 109.102 64.9605L109.138 63.8332L108.627 63.7904L108.556 63.8261H107.818L107.733 63.8332L107.556 63.6477C107.546 63.5668 107.541 63.4384 107.541 63.2624V61.6642C107.541 61.5833 107.598 61.5025 107.712 61.4216H108.187C108.599 61.4216 109.06 61.4264 109.571 61.4359H109.642C110.105 61.4454 110.458 61.4502 110.699 61.4502H111.125L111.288 61.443C112.13 61.443 112.61 61.4977 112.728 61.6071L112.643 67.0225V67.1224Z" fill="url(#paint10_linear)"/>
<defs>
<linearGradient id="paint0_linear" x1="108.5" y1="22.5" x2="18.5" y2="41.5" gradientUnits="userSpaceOnUse">
<stop/>
<stop offset="1" stop-color="#095749"/>
</linearGradient>
<linearGradient id="paint1_linear" x1="108.5" y1="22.5" x2="18.5" y2="41.5" gradientUnits="userSpaceOnUse">
<stop/>
<stop offset="1" stop-color="#095749"/>
</linearGradient>
<linearGradient id="paint2_linear" x1="108.5" y1="22.5" x2="18.5" y2="41.5" gradientUnits="userSpaceOnUse">
<stop/>
<stop offset="1" stop-color="#095749"/>
</linearGradient>
<linearGradient id="paint3_linear" x1="108.5" y1="22.5" x2="18.5" y2="41.5" gradientUnits="userSpaceOnUse">
<stop/>
<stop offset="1" stop-color="#095749"/>
</linearGradient>
<linearGradient id="paint4_linear" x1="108.5" y1="22.5" x2="18.5" y2="41.5" gradientUnits="userSpaceOnUse">
<stop/>
<stop offset="1" stop-color="#095749"/>
</linearGradient>
<linearGradient id="paint5_linear" x1="108.5" y1="22.5" x2="18.5" y2="41.5" gradientUnits="userSpaceOnUse">
<stop/>
<stop offset="1" stop-color="#095749"/>
</linearGradient>
<linearGradient id="paint6_linear" x1="108.5" y1="22.5" x2="18.5" y2="41.5" gradientUnits="userSpaceOnUse">
<stop/>
<stop offset="1" stop-color="#095749"/>
</linearGradient>
<linearGradient id="paint7_linear" x1="108.5" y1="22.5" x2="18.5" y2="41.5" gradientUnits="userSpaceOnUse">
<stop/>
<stop offset="1" stop-color="#095749"/>
</linearGradient>
<linearGradient id="paint8_linear" x1="108.5" y1="22.5" x2="18.5" y2="41.5" gradientUnits="userSpaceOnUse">
<stop/>
<stop offset="1" stop-color="#095749"/>
</linearGradient>
<linearGradient id="paint9_linear" x1="108.5" y1="22.5" x2="18.5" y2="41.5" gradientUnits="userSpaceOnUse">
<stop/>
<stop offset="1" stop-color="#095749"/>
</linearGradient>
<linearGradient id="paint10_linear" x1="108.5" y1="22.5" x2="18.5" y2="41.5" gradientUnits="userSpaceOnUse">
<stop/>
<stop offset="1" stop-color="#095749"/>
</linearGradient>
</defs>
</svg>
