<svg width="50" height="50" viewBox="0 0 50 50" fill="none" xmlns="http://www.w3.org/2000/svg">
<path d="M19.7917 8.33331C22.3824 8.33326 24.9188 9.07637 27.0999 10.4745C29.281 11.8726 31.0152 13.8671 32.0969 16.2212C33.1785 18.5753 33.5622 21.1903 33.2024 23.7559C32.8425 26.3216 31.7542 28.7301 30.0667 30.6958L41.825 42.4541L40.3521 43.9271L28.5917 32.1666C26.9331 33.585 24.9562 34.5815 22.8295 35.0713C20.7028 35.561 18.4893 35.5295 16.3774 34.9794C14.2655 34.4293 12.3178 33.377 10.7002 31.912C9.08267 30.447 7.84315 28.6127 7.08723 26.5655C6.33132 24.5182 6.0814 22.3186 6.35878 20.1539C6.63615 17.9892 7.43258 15.9237 8.68026 14.1331C9.92793 12.3426 11.5899 10.8801 13.5245 9.87027C15.4592 8.86043 17.6093 8.33315 19.7917 8.33331ZM19.7917 10.4166C16.7527 10.4166 13.8383 11.6239 11.6894 13.7727C9.54055 15.9216 8.33333 18.836 8.33333 21.875C8.33333 24.9139 9.54055 27.8284 11.6894 29.9772C13.8383 32.1261 16.7527 33.3333 19.7917 33.3333C22.8306 33.3333 25.7451 32.1261 27.8939 29.9772C30.0428 27.8284 31.25 24.9139 31.25 21.875C31.25 18.836 30.0428 15.9216 27.8939 13.7727C25.7451 11.6239 22.8306 10.4166 19.7917 10.4166Z" fill="black"/>
</svg>
