<svg width="50" height="50" viewBox="0 0 50 50" fill="none" xmlns="http://www.w3.org/2000/svg">
<path d="M16.0156 26.5625H33.9844C34.1992 26.5625 34.375 26.3867 34.375 26.1719V23.8281C34.375 23.6133 34.1992 23.4375 33.9844 23.4375H16.0156C15.8008 23.4375 15.625 23.6133 15.625 23.8281V26.1719C15.625 26.3867 15.8008 26.5625 16.0156 26.5625Z" fill="black"/>
<path d="M42.9688 5.46875H7.03125C6.16699 5.46875 5.46875 6.16699 5.46875 7.03125V42.9688C5.46875 43.833 6.16699 44.5312 7.03125 44.5312H42.9688C43.833 44.5312 44.5312 43.833 44.5312 42.9688V7.03125C44.5312 6.16699 43.833 5.46875 42.9688 5.46875ZM41.0156 41.0156H8.98438V8.98438H41.0156V41.0156Z" fill="black"/>
</svg>
