<svg width="50" height="50" viewBox="0 0 50 50" fill="none" xmlns="http://www.w3.org/2000/svg">
<path d="M42.9688 5.46875H7.03125C6.16699 5.46875 5.46875 6.16699 5.46875 7.03125V42.9688C5.46875 43.833 6.16699 44.5312 7.03125 44.5312H42.9688C43.833 44.5312 44.5312 43.833 44.5312 42.9688V7.03125C44.5312 6.16699 43.833 5.46875 42.9688 5.46875ZM34.375 26.1719C34.375 26.3867 34.1992 26.5625 33.9844 26.5625H26.5625V33.9844C26.5625 34.1992 26.3867 34.375 26.1719 34.375H23.8281C23.6133 34.375 23.4375 34.1992 23.4375 33.9844V26.5625H16.0156C15.8008 26.5625 15.625 26.3867 15.625 26.1719V23.8281C15.625 23.6133 15.8008 23.4375 16.0156 23.4375H23.4375V16.0156C23.4375 15.8008 23.6133 15.625 23.8281 15.625H26.1719C26.3867 15.625 26.5625 15.8008 26.5625 16.0156V23.4375H33.9844C34.1992 23.4375 34.375 23.6133 34.375 23.8281V26.1719Z" fill="black"/>
</svg>
