<svg width="261" height="261" viewBox="0 0 261 261" fill="none" xmlns="http://www.w3.org/2000/svg">
<path d="M130.5 0.27774C104.745 0.27774 79.5677 7.91514 58.1528 22.2241C36.7378 36.5331 20.0469 56.8711 10.1907 80.6661C0.334499 104.461 -2.24433 130.644 2.78032 155.905C7.80497 181.166 20.2074 204.369 38.4193 222.581C56.6312 240.793 79.8346 253.195 105.095 258.22C130.356 263.245 156.539 260.666 180.334 250.81C204.129 240.953 224.467 224.262 238.776 202.848C253.085 181.433 260.723 156.255 260.723 130.5C260.723 95.9629 247.003 62.8403 222.581 38.4189C198.16 13.9975 165.037 0.27774 130.5 0.27774V0.27774ZM130.5 244.444C107.964 244.444 85.9343 237.762 67.1962 225.241C48.4581 212.721 33.8536 194.925 25.2294 174.105C16.6052 153.284 14.3488 130.374 18.7453 108.271C23.1419 86.1674 33.994 65.8645 49.9295 49.9291C65.8649 33.9937 86.1678 23.1415 108.271 18.7449C130.374 14.3484 153.284 16.6048 174.105 25.229C194.926 33.8532 212.721 48.4577 225.242 67.1958C237.762 85.9339 244.445 107.964 244.445 130.5C244.445 160.72 232.44 189.702 211.071 211.071C189.703 232.44 160.72 244.444 130.5 244.444Z" fill="black"/>
<path d="M188.774 114.873C196.865 114.873 203.424 108.314 203.424 100.223C203.424 92.1324 196.865 85.5734 188.774 85.5734C180.683 85.5734 174.124 92.1324 174.124 100.223C174.124 108.314 180.683 114.873 188.774 114.873Z" fill="black"/>
<path d="M76.8644 114.873C84.9553 114.873 91.5143 108.314 91.5143 100.223C91.5143 92.1324 84.9553 85.5734 76.8644 85.5734C68.7734 85.5734 62.2144 92.1324 62.2144 100.223C62.2144 108.314 68.7734 114.873 76.8644 114.873Z" fill="black"/>
<path d="M131.802 146.778C120.126 146.78 108.619 149.573 98.2415 154.925C87.8639 160.276 78.916 168.031 72.1438 177.543C70.8918 179.302 70.39 181.486 70.7487 183.616C71.1073 185.745 72.2972 187.645 74.0564 188.896C75.8156 190.148 78.0002 190.65 80.1294 190.292C82.2586 189.933 84.1582 188.743 85.4102 186.984C90.6142 179.674 97.471 173.697 105.422 169.54C113.374 165.382 122.195 163.161 131.167 163.058C140.139 162.955 149.008 164.973 157.053 168.946C165.098 172.92 172.09 178.738 177.461 185.926C178.756 187.653 180.684 188.794 182.821 189.1C184.958 189.405 187.129 188.849 188.855 187.554C190.582 186.258 191.724 184.33 192.029 182.193C192.334 180.057 191.778 177.886 190.483 176.159C183.66 167.036 174.804 159.63 164.617 154.529C154.43 149.429 143.194 146.775 131.802 146.778V146.778Z" fill="black"/>
</svg>
