<svg width="50" height="50" viewBox="0 0 50 50" fill="none" xmlns="http://www.w3.org/2000/svg">
<path d="M43.75 4.6875H6.25C4.52411 4.6875 3.125 6.08661 3.125 7.8125V9.375C3.125 11.1009 4.52411 12.5 6.25 12.5H43.75C45.4759 12.5 46.875 11.1009 46.875 9.375V7.8125C46.875 6.08661 45.4759 4.6875 43.75 4.6875Z" fill="black"/>
<path d="M7.27082 15.625C7.16103 15.6244 7.05235 15.647 6.95187 15.6912C6.85138 15.7354 6.76135 15.8003 6.68763 15.8817C6.61392 15.9631 6.55818 16.0591 6.52406 16.1634C6.48993 16.2678 6.47818 16.3781 6.48957 16.4873L9.05891 41.1514C9.05838 41.1585 9.05838 41.1657 9.05891 41.1729C9.19315 42.3136 9.7416 43.3654 10.6001 44.1285C11.4586 44.8916 12.5675 45.313 13.7161 45.3125H36.2835C37.4318 45.3125 38.5402 44.891 39.3983 44.1279C40.2564 43.3648 40.8046 42.3133 40.9388 41.1729V41.1524L43.5042 16.4873C43.5156 16.3781 43.5039 16.2678 43.4697 16.1634C43.4356 16.0591 43.3799 15.9631 43.3062 15.8817C43.2324 15.8003 43.1424 15.7354 43.0419 15.6912C42.9414 15.647 42.8328 15.6244 42.723 15.625H7.27082ZM31.5736 33.2705C31.7221 33.4148 31.8405 33.5873 31.9218 33.7777C32.0031 33.9682 32.0457 34.173 32.0472 34.3801C32.0486 34.5872 32.0089 34.7925 31.9303 34.9841C31.8517 35.1758 31.7358 35.3498 31.5893 35.4963C31.4428 35.6427 31.2687 35.7585 31.0771 35.837C30.8854 35.9155 30.6801 35.9552 30.473 35.9536C30.2658 35.9521 30.0611 35.9093 29.8707 35.8279C29.6802 35.7466 29.5079 35.6281 29.3636 35.4795L25.0003 31.1162L20.6361 35.4795C20.3417 35.7655 19.9466 35.9242 19.5361 35.9213C19.1257 35.9184 18.7329 35.7541 18.4426 35.464C18.1523 35.1738 17.9878 34.7811 17.9848 34.3706C17.9817 33.9602 18.1402 33.565 18.4261 33.2705L22.7903 28.9063L18.4261 24.542C18.1402 24.2475 17.9817 23.8523 17.9848 23.4419C17.9878 23.0315 18.1523 22.6387 18.4426 22.3486C18.7329 22.0584 19.1257 21.8941 19.5361 21.8912C19.9466 21.8883 20.3417 22.047 20.6361 22.333L25.0003 26.6963L29.3636 22.333C29.658 22.047 30.0531 21.8883 30.4635 21.8912C30.8739 21.8941 31.2667 22.0584 31.557 22.3486C31.8473 22.6387 32.0118 23.0315 32.0149 23.4419C32.018 23.8523 31.8594 24.2475 31.5736 24.542L27.2093 28.9063L31.5736 33.2705Z" fill="black"/>
</svg>
