<svg width="30" height="30" viewBox="0 0 30 30" fill="none" xmlns="http://www.w3.org/2000/svg">
<path d="M21.0469 5.625C21.7295 5.62443 22.4053 5.76012 23.0347 6.02414C23.6642 6.28815 24.2346 6.67517 24.7125 7.1625C25.6973 8.16223 26.2493 9.50921 26.2493 10.9125C26.2493 12.3158 25.6973 13.6628 24.7125 14.6625L15 24.4969L5.2875 14.6625C4.30274 13.6628 3.75074 12.3158 3.75074 10.9125C3.75074 9.50921 4.30274 8.16223 5.2875 7.1625C5.76571 6.67552 6.33617 6.2887 6.96555 6.02465C7.59492 5.7606 8.2706 5.6246 8.95313 5.6246C9.63565 5.6246 10.3113 5.7606 10.9407 6.02465C11.5701 6.2887 12.1405 6.67552 12.6188 7.1625L15 9.6L17.3719 7.18125C17.8484 6.68811 18.4194 6.29612 19.0508 6.02873C19.6823 5.76133 20.3612 5.62402 21.0469 5.625ZM21.0469 3.75C20.1147 3.74921 19.1916 3.93455 18.332 4.29516C17.4723 4.65577 16.6933 5.18438 16.0406 5.85L15 6.9L13.9594 5.85C13.3059 5.18558 12.5267 4.65789 11.6672 4.29768C10.8077 3.93748 9.88506 3.75197 8.95313 3.75197C8.02119 3.75197 7.09858 3.93748 6.23908 4.29768C5.37957 4.65789 4.60036 5.18558 3.94688 5.85C2.61739 7.2034 1.87247 9.02471 1.87247 10.9219C1.87247 12.819 2.61739 14.6404 3.94688 15.9938L15 27.1875L26.0531 15.9938C27.3826 14.6404 28.1275 12.819 28.1275 10.9219C28.1275 9.02471 27.3826 7.2034 26.0531 5.85C25.3998 5.18522 24.6207 4.65717 23.7612 4.29662C22.9016 3.93608 21.979 3.75026 21.0469 3.75Z" fill="black"/>
</svg>
