<svg width="345" height="50" viewBox="0 0 345 50" fill="none" xmlns="http://www.w3.org/2000/svg">
<g filter="url(#filter0_d)">
<path d="M18.5664 36.8828C18.944 36.8828 19.3932 36.8763 19.9141 36.8633C20.4349 36.8503 20.9948 36.7786 21.5938 36.6484C22.1927 36.5182 22.8177 36.3099 23.4688 36.0234C24.1198 35.737 24.7643 35.3268 25.4023 34.793C26.0534 34.2461 26.6849 33.5495 27.2969 32.7031C27.9089 31.8568 28.4753 30.8086 28.9961 29.5586L29.6406 29.793C29.1068 31.069 28.5273 32.1497 27.9023 33.0352C27.2904 33.9076 26.6523 34.6367 25.9883 35.2227C25.3372 35.7956 24.6797 36.2448 24.0156 36.5703C23.3516 36.8958 22.707 37.1302 22.082 37.2734C21.457 37.4297 20.8646 37.5208 20.3047 37.5469C19.7578 37.5859 19.2695 37.6055 18.8398 37.6055C18.4492 37.6055 17.9479 37.5859 17.3359 37.5469C16.737 37.5208 16.0729 37.4427 15.3438 37.3125C14.6146 37.1823 13.8464 36.987 13.0391 36.7266C12.2448 36.4661 11.457 36.1146 10.6758 35.6719C9.89453 35.2161 9.15234 34.6562 8.44922 33.9922C7.74609 33.3151 7.1276 32.5013 6.59375 31.5508C6.0599 30.5872 5.63021 29.4674 5.30469 28.1914C4.99219 26.9154 4.83594 25.4505 4.83594 23.7969C4.83594 21.7005 5.07682 19.8841 5.55859 18.3477C6.04036 16.7982 6.67839 15.4831 7.47266 14.4023C8.27995 13.3086 9.19792 12.4167 10.2266 11.7266C11.2552 11.0234 12.3099 10.4766 13.3906 10.0859C14.4714 9.68229 15.5391 9.40234 16.5938 9.24609C17.6484 9.08984 18.599 9.00521 19.4453 8.99219H19.7188C21.3333 8.99219 22.7982 9.21354 24.1133 9.65625C25.4414 10.0859 26.5742 10.6654 27.5117 11.3945C28.4622 12.1237 29.1914 12.957 29.6992 13.8945C30.2201 14.832 30.4805 15.8021 30.4805 16.8047C30.4805 17.2865 30.3893 17.7357 30.207 18.1523C30.0247 18.556 29.7839 18.9076 29.4844 19.207C29.1979 19.5065 28.8594 19.7409 28.4688 19.9102C28.0781 20.0794 27.681 20.1641 27.2773 20.1641C26.8607 20.151 26.4375 20.0469 26.0078 19.8516C25.5911 19.6562 25.207 19.3828 24.8555 19.0312C24.5039 18.6797 24.1979 18.25 23.9375 17.7422C23.6901 17.2344 23.5273 16.668 23.4492 16.043L23.3125 15.125C23.2344 14.5391 23.1302 13.9336 23 13.3086C22.8698 12.6706 22.668 12.0846 22.3945 11.5508C22.1341 11.0169 21.7891 10.5807 21.3594 10.2422C20.9297 9.89062 20.3828 9.71484 19.7188 9.71484H19.4844C18.9375 9.75391 18.3776 9.89062 17.8047 10.125C17.2318 10.3464 16.6719 10.6979 16.125 11.1797C15.5911 11.6484 15.0768 12.2539 14.582 12.9961C14.1003 13.7253 13.6771 14.6107 13.3125 15.6523C12.9479 16.681 12.6549 17.8854 12.4336 19.2656C12.2253 20.6328 12.1211 22.1823 12.1211 23.9141C12.1211 25.6589 12.2122 27.1888 12.3945 28.5039C12.5898 29.806 12.8438 30.9388 13.1562 31.9023C13.4818 32.8529 13.8529 33.6471 14.2695 34.2852C14.6992 34.9102 15.1419 35.4115 15.5977 35.7891C16.0664 36.1667 16.5352 36.4401 17.0039 36.6094C17.4727 36.7786 17.9219 36.8698 18.3516 36.8828H18.5664Z" fill="black"/>
</g>
<g filter="url(#filter1_d)">
<path d="M73.0742 37.1172V36.3945H77.6836L77.8008 10.1641L72.7617 10.0078V9.28516L89.832 9.75391V10.4766L85.6719 10.3594C85.6589 10.5286 85.6393 10.8281 85.6133 11.2578C85.5872 11.6875 85.5612 12.319 85.5352 13.1523C85.5091 13.9727 85.4701 15.0208 85.418 16.2969C85.3789 17.5729 85.3398 19.1484 85.3008 21.0234C85.2617 22.8984 85.2161 25.099 85.1641 27.625C85.112 30.151 85.0599 33.0742 85.0078 36.3945H88.9141C89.2005 36.3945 89.5846 36.3424 90.0664 36.2383C90.5612 36.1211 91.0885 35.9128 91.6484 35.6133C92.2214 35.3138 92.8008 34.9036 93.3867 34.3828C93.9727 33.862 94.5065 33.1849 94.9883 32.3516C95.4701 31.5182 95.8737 30.5156 96.1992 29.3438C96.5247 28.1719 96.7135 26.7917 96.7656 25.2031H97.4883L97.1562 37.1172C96.0755 37.1172 95.112 37.1172 94.2656 37.1172C93.4323 37.1172 92.651 37.1172 91.9219 37.1172C91.1927 37.1172 90.4896 37.1172 89.8125 37.1172C89.1354 37.1302 88.4193 37.1367 87.6641 37.1367C86.9089 37.1367 86.082 37.1367 85.1836 37.1367C84.2852 37.1367 83.2565 37.1367 82.0977 37.1367C80.9518 37.1367 79.6432 37.1302 78.1719 37.1172C76.7005 37.1172 75.0013 37.1172 73.0742 37.1172ZM124.246 36.8828C124.624 36.8828 125.073 36.8763 125.594 36.8633C126.115 36.8503 126.674 36.7786 127.273 36.6484C127.872 36.5182 128.497 36.3099 129.148 36.0234C129.799 35.737 130.444 35.3268 131.082 34.793C131.733 34.2461 132.365 33.5495 132.977 32.7031C133.589 31.8568 134.155 30.8086 134.676 29.5586L135.32 29.793C134.786 31.069 134.207 32.1497 133.582 33.0352C132.97 33.9076 132.332 34.6367 131.668 35.2227C131.017 35.7956 130.359 36.2448 129.695 36.5703C129.031 36.8958 128.387 37.1302 127.762 37.2734C127.137 37.4297 126.544 37.5208 125.984 37.5469C125.438 37.5859 124.949 37.6055 124.52 37.6055C124.129 37.6055 123.628 37.5859 123.016 37.5469C122.417 37.5208 121.753 37.4427 121.023 37.3125C120.294 37.1823 119.526 36.987 118.719 36.7266C117.924 36.4661 117.137 36.1146 116.355 35.6719C115.574 35.2161 114.832 34.6562 114.129 33.9922C113.426 33.3151 112.807 32.5013 112.273 31.5508C111.74 30.5872 111.31 29.4674 110.984 28.1914C110.672 26.9154 110.516 25.4505 110.516 23.7969C110.516 21.7005 110.757 19.8841 111.238 18.3477C111.72 16.7982 112.358 15.4831 113.152 14.4023C113.96 13.3086 114.878 12.4167 115.906 11.7266C116.935 11.0234 117.99 10.4766 119.07 10.0859C120.151 9.68229 121.219 9.40234 122.273 9.24609C123.328 9.08984 124.279 9.00521 125.125 8.99219H125.398C127.013 8.99219 128.478 9.21354 129.793 9.65625C131.121 10.0859 132.254 10.6654 133.191 11.3945C134.142 12.1237 134.871 12.957 135.379 13.8945C135.9 14.832 136.16 15.8021 136.16 16.8047C136.16 17.2865 136.069 17.7357 135.887 18.1523C135.704 18.556 135.464 18.9076 135.164 19.207C134.878 19.5065 134.539 19.7409 134.148 19.9102C133.758 20.0794 133.361 20.1641 132.957 20.1641C132.54 20.151 132.117 20.0469 131.688 19.8516C131.271 19.6562 130.887 19.3828 130.535 19.0312C130.184 18.6797 129.878 18.25 129.617 17.7422C129.37 17.2344 129.207 16.668 129.129 16.043L128.992 15.125C128.914 14.5391 128.81 13.9336 128.68 13.3086C128.549 12.6706 128.348 12.0846 128.074 11.5508C127.814 11.0169 127.469 10.5807 127.039 10.2422C126.609 9.89062 126.062 9.71484 125.398 9.71484H125.164C124.617 9.75391 124.057 9.89062 123.484 10.125C122.911 10.3464 122.352 10.6979 121.805 11.1797C121.271 11.6484 120.757 12.2539 120.262 12.9961C119.78 13.7253 119.357 14.6107 118.992 15.6523C118.628 16.681 118.335 17.8854 118.113 19.2656C117.905 20.6328 117.801 22.1823 117.801 23.9141C117.801 25.6589 117.892 27.1888 118.074 28.5039C118.27 29.806 118.523 30.9388 118.836 31.9023C119.161 32.8529 119.533 33.6471 119.949 34.2852C120.379 34.9102 120.822 35.4115 121.277 35.7891C121.746 36.1667 122.215 36.4401 122.684 36.6094C123.152 36.7786 123.602 36.8698 124.031 36.8828H124.246ZM138.113 37.1172V36.3945H142.723L142.84 10.1641L137.801 10.0078V9.28516L154.871 9.75391V10.4766L150.711 10.3594C150.698 10.5286 150.678 10.8281 150.652 11.2578C150.626 11.6875 150.6 12.319 150.574 13.1523C150.548 13.9727 150.509 15.0208 150.457 16.2969C150.418 17.5729 150.379 19.1484 150.34 21.0234C150.301 22.8984 150.255 25.099 150.203 27.625C150.151 30.151 150.099 33.0742 150.047 36.3945H153.953C154.24 36.3945 154.624 36.3424 155.105 36.2383C155.6 36.1211 156.128 35.9128 156.688 35.6133C157.26 35.3138 157.84 34.9036 158.426 34.3828C159.012 33.862 159.546 33.1849 160.027 32.3516C160.509 31.5182 160.913 30.5156 161.238 29.3438C161.564 28.1719 161.753 26.7917 161.805 25.2031H162.527L162.195 37.1172C161.115 37.1172 160.151 37.1172 159.305 37.1172C158.471 37.1172 157.69 37.1172 156.961 37.1172C156.232 37.1172 155.529 37.1172 154.852 37.1172C154.174 37.1302 153.458 37.1367 152.703 37.1367C151.948 37.1367 151.121 37.1367 150.223 37.1367C149.324 37.1367 148.296 37.1367 147.137 37.1367C145.991 37.1367 144.682 37.1302 143.211 37.1172C141.74 37.1172 140.04 37.1172 138.113 37.1172ZM193.758 23.7188C193.758 25.0208 193.589 26.2708 193.25 27.4688C192.911 28.6667 192.436 29.793 191.824 30.8477C191.212 31.8893 190.477 32.8398 189.617 33.6992C188.758 34.5586 187.801 35.2943 186.746 35.9062C185.704 36.5182 184.585 36.9935 183.387 37.332C182.189 37.6706 180.939 37.8398 179.637 37.8398C178.335 37.8398 177.078 37.6706 175.867 37.332C174.656 36.9935 173.523 36.5182 172.469 35.9062C171.427 35.2943 170.477 34.5586 169.617 33.6992C168.758 32.8398 168.022 31.8893 167.41 30.8477C166.798 29.793 166.323 28.6667 165.984 27.4688C165.646 26.2708 165.477 25.0208 165.477 23.7188C165.477 22.4297 165.646 21.1927 165.984 20.0078C166.323 18.8099 166.798 17.6901 167.41 16.6484C168.022 15.5938 168.758 14.6367 169.617 13.7773C170.477 12.918 171.427 12.1823 172.469 11.5703C173.523 10.9583 174.656 10.4831 175.867 10.1445C177.078 9.80599 178.335 9.63672 179.637 9.63672C180.939 9.63672 182.189 9.80599 183.387 10.1445C184.585 10.4831 185.704 10.9583 186.746 11.5703C187.801 12.1823 188.758 12.918 189.617 13.7773C190.477 14.6367 191.212 15.5938 191.824 16.6484C192.436 17.6901 192.911 18.8099 193.25 20.0078C193.589 21.1927 193.758 22.4297 193.758 23.7188ZM186.238 23.7188C186.238 21.4531 186.076 19.487 185.75 17.8203C185.438 16.1406 184.988 14.7539 184.402 13.6602C183.829 12.5534 183.133 11.7266 182.312 11.1797C181.505 10.6328 180.613 10.3594 179.637 10.3594C178.634 10.3594 177.723 10.6589 176.902 11.2578C176.095 11.8568 175.405 12.7292 174.832 13.875C174.259 15.0208 173.816 16.4206 173.504 18.0742C173.191 19.7279 173.035 21.6094 173.035 23.7188C173.035 25.763 173.191 27.612 173.504 29.2656C173.816 30.9062 174.259 32.3125 174.832 33.4844C175.405 34.6432 176.095 35.5417 176.902 36.1797C177.723 36.8047 178.634 37.1172 179.637 37.1172C180.613 37.1172 181.505 36.8438 182.312 36.2969C183.133 35.75 183.829 34.9232 184.402 33.8164C184.988 32.7096 185.438 31.3164 185.75 29.6367C186.076 27.957 186.238 25.9844 186.238 23.7188ZM200.926 36.3555H205.477L205.594 10.2422H205.203V10.2812C203.849 10.3854 202.625 10.8346 201.531 11.6289C201.062 11.9674 200.607 12.3971 200.164 12.918C199.721 13.4388 199.318 14.0833 198.953 14.8516C198.602 15.6198 198.309 16.5182 198.074 17.5469C197.84 18.5755 197.71 19.7669 197.684 21.1211H196.961L197.273 9.28516L221.316 10.0078L221.121 22.6836H220.398C220.411 21.1081 220.301 19.7279 220.066 18.543C219.832 17.3581 219.513 16.3359 219.109 15.4766C218.706 14.6042 218.25 13.8815 217.742 13.3086C217.234 12.7227 216.72 12.2474 216.199 11.8828C215.678 11.5052 215.177 11.2253 214.695 11.043C214.227 10.8477 213.823 10.7109 213.484 10.6328C213.458 10.8932 213.432 11.2773 213.406 11.7852C213.38 12.293 213.348 12.9831 213.309 13.8555C213.283 14.7279 213.25 15.8151 213.211 17.1172C213.172 18.4062 213.126 19.9622 213.074 21.7852C213.035 23.6081 212.99 25.724 212.938 28.1328C212.898 30.5286 212.853 33.2695 212.801 36.3555H217.605V37.0781H200.926V36.3555ZM240.262 10.5156L236.805 10.3984C236.779 10.5938 236.753 10.9648 236.727 11.5117C236.701 12.0456 236.668 12.8398 236.629 13.8945C236.59 14.9492 236.551 16.2969 236.512 17.9375C236.473 19.5651 236.427 21.5703 236.375 23.9531L246.941 23.7969L247.02 10.1641L242.781 10.0078V9.28516L259.09 9.79297V10.5156L254.891 10.3984C254.878 10.5547 254.858 10.8411 254.832 11.2578C254.806 11.6745 254.773 12.293 254.734 13.1133C254.708 13.9206 254.676 14.9622 254.637 16.2383C254.598 17.5143 254.552 19.0898 254.5 20.9648C254.461 22.8398 254.415 25.0469 254.363 27.5859C254.311 30.125 254.259 33.0612 254.207 36.3945H259.012V37.1172H243.094V36.3945H246.902L246.941 24.5195L236.336 24.6758C236.31 25.4961 236.29 26.3424 236.277 27.2148C236.264 28.0872 236.251 29.0052 236.238 29.9688C236.225 30.9193 236.206 31.9284 236.18 32.9961C236.167 34.0508 236.154 35.1836 236.141 36.3945H240.164V37.1172H224.207V36.3945H228.816L228.934 10.1641L223.934 10.0078V9.28516L240.262 9.79297V10.5156ZM261.199 36.3945H265.809L265.926 10.1641L260.926 10.0078V9.28516L277.996 9.79297V10.5156L273.797 10.3984C273.784 10.5677 273.764 10.8672 273.738 11.2969C273.712 11.7266 273.686 12.3516 273.66 13.1719C273.634 13.9922 273.595 15.0404 273.543 16.3164C273.504 17.5924 273.465 19.168 273.426 21.043C273.387 22.9049 273.341 25.099 273.289 27.625C273.237 30.151 273.185 33.0742 273.133 36.3945H277.918V37.1172H261.199V36.3945ZM280.594 9.55859L290.066 9.44141L304.559 26.3555V10.4375L300.184 10.2812V9.55859L309.754 9.87109V10.5938L305.262 10.4375L305.301 38.3281L285.633 16.2773L285.145 36.3555L289.461 36.2383V36.9609L279.949 37.1953V36.4727L284.422 36.3555L285.066 10.2422L280.594 10.2812V9.55859ZM325.633 24.4414L340.848 23.9141V24.7539L337.605 24.8711L336.59 38.0742L334.246 34.7148C333.556 35.4831 332.846 36.0885 332.117 36.5312C331.401 36.9609 330.698 37.2799 330.008 37.4883C329.331 37.7096 328.686 37.8464 328.074 37.8984C327.462 37.9635 326.915 37.9961 326.434 37.9961H325.887C325.457 37.9961 324.93 37.9701 324.305 37.918C323.68 37.8789 323.003 37.7878 322.273 37.6445C321.557 37.5013 320.809 37.2865 320.027 37C319.246 36.7266 318.478 36.362 317.723 35.9062C316.98 35.4375 316.271 34.8646 315.594 34.1875C314.917 33.5104 314.324 32.7031 313.816 31.7656C313.309 30.8151 312.905 29.7214 312.605 28.4844C312.306 27.2344 312.156 25.8086 312.156 24.207C312.156 22.6055 312.299 21.1667 312.586 19.8906C312.872 18.6146 313.263 17.4818 313.758 16.4922C314.266 15.4896 314.858 14.6237 315.535 13.8945C316.212 13.1523 316.935 12.5208 317.703 12C318.484 11.4792 319.285 11.0495 320.105 10.7109C320.939 10.3724 321.766 10.1055 322.586 9.91016C323.406 9.71484 324.194 9.58464 324.949 9.51953C325.717 9.44141 326.414 9.40234 327.039 9.40234C328.654 9.40234 330.118 9.6237 331.434 10.0664C332.762 10.4961 333.895 11.0755 334.832 11.8047C335.783 12.5208 336.512 13.3477 337.02 14.2852C337.54 15.2227 337.801 16.1927 337.801 17.1953C337.801 17.6771 337.71 18.1263 337.527 18.543C337.345 18.9466 337.104 19.2982 336.805 19.5977C336.518 19.8971 336.18 20.1315 335.789 20.3008C335.398 20.4701 335.001 20.5547 334.598 20.5547C334.181 20.5417 333.758 20.4375 333.328 20.2422C332.911 20.0469 332.521 19.7734 332.156 19.4219C331.805 19.0703 331.499 18.6406 331.238 18.1328C330.991 17.625 330.828 17.0586 330.75 16.4336L330.633 15.5156C330.568 14.9557 330.47 14.3698 330.34 13.7578C330.21 13.1458 330.014 12.5794 329.754 12.0586C329.507 11.5247 329.181 11.082 328.777 10.7305C328.374 10.3659 327.859 10.1641 327.234 10.125H327.039C326.492 10.125 325.926 10.2292 325.34 10.4375C324.754 10.6328 324.174 10.9648 323.602 11.4336C323.042 11.8893 322.508 12.4818 322 13.2109C321.505 13.9401 321.062 14.832 320.672 15.8867C320.294 16.9284 319.995 18.1523 319.773 19.5586C319.552 20.9518 319.441 22.5404 319.441 24.3242C319.441 26.1081 319.539 27.6641 319.734 28.9922C319.943 30.3203 320.21 31.4661 320.535 32.4297C320.874 33.3932 321.264 34.1875 321.707 34.8125C322.15 35.4375 322.605 35.9323 323.074 36.2969C323.556 36.6615 324.038 36.9154 324.52 37.0586C325.001 37.2018 325.457 37.2734 325.887 37.2734H326.277C327.163 37.1823 327.964 36.7982 328.68 36.1211C328.979 35.8346 329.272 35.4701 329.559 35.0273C329.845 34.5846 330.099 34.0443 330.32 33.4062C330.555 32.7682 330.737 32.013 330.867 31.1406C331.01 30.2682 331.082 29.2591 331.082 28.1133C331.082 27.6706 331.062 27.1888 331.023 26.668C330.997 26.1471 330.965 25.6068 330.926 25.0469L325.633 25.2031V24.4414Z" fill="black"/>
</g>
<g filter="url(#filter2_d)">
<path d="M57.8829 24.6288C56.4379 31.5195 50.1489 35.7788 44.0622 34.5024C37.9755 33.226 33.9275 26.7989 35.3726 19.9082C36.8176 13.0175 43.1066 8.75818 49.1933 10.0346C55.28 11.311 59.3279 17.7381 57.8829 24.6288Z" stroke="#FFA27A" stroke-width="4"/>
</g>
<g filter="url(#filter3_d)">
<path d="M69.6274 27.0918C68.1824 33.9825 61.8934 38.2418 55.8067 36.9654C49.72 35.689 45.672 29.2619 47.1171 22.3712C48.5621 15.4805 54.8511 11.2212 60.9378 12.4976C67.0245 13.774 71.0725 20.2011 69.6274 27.0918Z" stroke="#0FCEAC" stroke-width="4"/>
</g>
<defs>
<filter id="filter0_d" x="0.835938" y="8.99219" width="33.6445" height="36.6133" filterUnits="userSpaceOnUse" color-interpolation-filters="sRGB">
<feFlood flood-opacity="0" result="BackgroundImageFix"/>
<feColorMatrix in="SourceAlpha" type="matrix" values="0 0 0 0 0 0 0 0 0 0 0 0 0 0 0 0 0 0 127 0"/>
<feOffset dy="4"/>
<feGaussianBlur stdDeviation="2"/>
<feColorMatrix type="matrix" values="0 0 0 0 0 0 0 0 0 0 0 0 0 0 0 0 0 0 0.25 0"/>
<feBlend mode="normal" in2="BackgroundImageFix" result="effect1_dropShadow"/>
<feBlend mode="normal" in="SourceGraphic" in2="effect1_dropShadow" result="shape"/>
</filter>
<filter id="filter1_d" x="68.7617" y="8.99219" width="276.086" height="37.3359" filterUnits="userSpaceOnUse" color-interpolation-filters="sRGB">
<feFlood flood-opacity="0" result="BackgroundImageFix"/>
<feColorMatrix in="SourceAlpha" type="matrix" values="0 0 0 0 0 0 0 0 0 0 0 0 0 0 0 0 0 0 127 0"/>
<feOffset dy="4"/>
<feGaussianBlur stdDeviation="2"/>
<feColorMatrix type="matrix" values="0 0 0 0 0 0 0 0 0 0 0 0 0 0 0 0 0 0 0.25 0"/>
<feBlend mode="normal" in2="BackgroundImageFix" result="effect1_dropShadow"/>
<feBlend mode="normal" in="SourceGraphic" in2="effect1_dropShadow" result="shape"/>
</filter>
<filter id="filter2_d" x="26.4391" y="5.3064" width="40.3773" height="41.9242" filterUnits="userSpaceOnUse" color-interpolation-filters="sRGB">
<feFlood flood-opacity="0" result="BackgroundImageFix"/>
<feColorMatrix in="SourceAlpha" type="matrix" values="0 0 0 0 0 0 0 0 0 0 0 0 0 0 0 0 0 0 127 0"/>
<feOffset dy="4"/>
<feGaussianBlur stdDeviation="2"/>
<feColorMatrix type="matrix" values="0 0 0 0 0 0 0 0 0 0 0 0 0 0 0 0 0 0 0.25 0"/>
<feBlend mode="normal" in2="BackgroundImageFix" result="effect1_dropShadow"/>
<feBlend mode="normal" in="SourceGraphic" in2="effect1_dropShadow" result="shape"/>
</filter>
<filter id="filter3_d" x="38.1836" y="7.76941" width="40.3773" height="41.9242" filterUnits="userSpaceOnUse" color-interpolation-filters="sRGB">
<feFlood flood-opacity="0" result="BackgroundImageFix"/>
<feColorMatrix in="SourceAlpha" type="matrix" values="0 0 0 0 0 0 0 0 0 0 0 0 0 0 0 0 0 0 127 0"/>
<feOffset dy="4"/>
<feGaussianBlur stdDeviation="2"/>
<feColorMatrix type="matrix" values="0 0 0 0 0 0 0 0 0 0 0 0 0 0 0 0 0 0 0.25 0"/>
<feBlend mode="normal" in2="BackgroundImageFix" result="effect1_dropShadow"/>
<feBlend mode="normal" in="SourceGraphic" in2="effect1_dropShadow" result="shape"/>
</filter>
</defs>
</svg>
