<svg width="50" height="50" viewBox="0 0 50 50" fill="none" xmlns="http://www.w3.org/2000/svg">
<path d="M25 43.75C34.1896 43.75 41.6666 36.273 41.6666 27.0834C41.6666 20.1042 37.35 14.123 31.25 11.6438V16.275C33.1477 17.3707 34.7241 18.946 35.8211 20.843C36.918 22.74 37.497 24.8921 37.5 27.0834C37.5 33.9771 31.8937 39.5834 25 39.5834C18.1062 39.5834 12.5 33.9771 12.5 27.0834C12.5027 24.892 13.0816 22.7399 14.1786 20.8429C15.2756 18.9458 16.8521 17.3705 18.75 16.275V11.6438C12.65 14.123 8.33331 20.1042 8.33331 27.0834C8.33331 36.273 15.8104 43.75 25 43.75Z" fill="black"/>
<path d="M22.9167 4.16663H27.0834V25H22.9167V4.16663Z" fill="black"/>
</svg>
